<svg width="38" height="38" viewBox="0 0 38 38" fill="none" xmlns="http://www.w3.org/2000/svg">
<g clip-path="url(#clip0_72_203)">
<path fillRule="evenodd" clip-rule="evenodd" d="M18.9933 0.949997C14.5109 0.952323 10.1754 2.53992 6.76214 5.42891C3.34888 8.3179 1.08041 12.3199 0.36234 16.7193C-0.355726 21.1187 0.523435 25.6286 2.84264 29.4426C5.16184 33.2567 8.76984 36.1261 13.0215 37.5378C13.9595 37.7119 14.3128 37.1305 14.3128 36.6362C14.3128 36.1419 14.294 34.7088 14.2878 33.1419C9.03506 34.2766 7.92512 30.9253 7.92512 30.9253C7.06843 28.7491 5.83029 28.1771 5.83029 28.1771C4.1169 27.0144 5.95849 27.0362 5.95849 27.0362C7.85634 27.1699 8.85373 28.973 8.85373 28.973C10.5359 31.8424 13.2716 31.0124 14.3472 30.5274C14.516 29.3118 15.0069 28.4849 15.5478 28.0155C11.3519 27.5429 6.94336 25.9325 6.94336 18.7387C6.91735 16.873 7.61363 15.0688 8.88812 13.6993C8.69427 13.2268 8.04705 11.3179 9.07258 8.72518C9.07258 8.72518 10.6578 8.22155 14.2659 10.6495C17.3607 9.80803 20.626 9.80803 23.7208 10.6495C27.3258 8.22155 28.9078 8.72518 28.9078 8.72518C29.9365 11.3117 29.2893 13.2205 29.0954 13.6993C30.3739 15.069 31.0717 16.8764 31.0433 18.7449C31.0433 25.9543 26.6254 27.5429 22.4232 28.0061C23.0986 28.5906 23.702 29.7315 23.702 31.4849C23.702 33.9968 23.6801 36.0176 23.6801 36.6362C23.6801 37.1368 24.0209 37.7212 24.9777 37.5378C29.2298 36.1259 32.8382 33.256 35.1573 29.4413C37.4765 25.6266 38.3552 21.116 37.6363 16.7162C36.9174 12.3164 34.6478 8.31438 31.2334 5.42589C27.819 2.5374 23.4826 0.950848 18.9996 0.949997H18.9933Z" fill="#B0BEC5"/>
<path d="M7.26196 27.9066C7.22131 27.9999 7.07124 28.0279 6.9493 27.9626C6.82736 27.8973 6.7367 27.7761 6.78047 27.6797C6.82424 27.5833 6.97119 27.5585 7.09313 27.6237C7.21507 27.689 7.30886 27.8134 7.26196 27.9066Z" fill="#B0BEC5"/>
<path d="M8.02785 28.7553C7.9631 28.7878 7.88902 28.7968 7.8183 28.781C7.74757 28.7651 7.6846 28.7253 7.64015 28.6683C7.51822 28.5377 7.49319 28.3574 7.58699 28.2766C7.68079 28.1958 7.84964 28.2331 7.97157 28.3636C8.09351 28.4942 8.12165 28.6745 8.02785 28.7553Z" fill="#B0BEC5"/>
<path d="M8.77194 29.8341C8.65625 29.9149 8.45927 29.8341 8.34983 29.6724C8.31957 29.6434 8.29551 29.6087 8.27907 29.5702C8.26263 29.5317 8.25415 29.4904 8.25415 29.4486C8.25415 29.4068 8.26263 29.3655 8.27907 29.327C8.29551 29.2885 8.31957 29.2538 8.34983 29.2248C8.46552 29.147 8.66251 29.2248 8.77194 29.3833C8.88137 29.5419 8.8845 29.7533 8.77194 29.8341V29.8341Z" fill="#B0BEC5"/>
<path d="M9.782 30.8787C9.67882 30.9937 9.46934 30.9626 9.29738 30.8072C9.12542 30.6517 9.08476 30.4403 9.18794 30.3284C9.29112 30.2165 9.5006 30.2476 9.67882 30.3999C9.85703 30.5522 9.89143 30.7668 9.782 30.8787V30.8787Z" fill="#B0BEC5"/>
<path d="M11.1983 31.488C11.1514 31.6341 10.9388 31.6994 10.7262 31.6372C10.5135 31.575 10.3728 31.4009 10.4135 31.2517C10.4541 31.1025 10.6699 31.0341 10.8856 31.1025C11.1013 31.1709 11.2389 31.3357 11.1983 31.488Z" fill="#B0BEC5"/>
<path d="M12.7429 31.5937C12.7429 31.746 12.5678 31.8766 12.3427 31.8797C12.1176 31.8828 11.9331 31.7585 11.9331 31.6061C11.9331 31.4538 12.1082 31.3232 12.3333 31.3201C12.5584 31.317 12.7429 31.4383 12.7429 31.5937Z" fill="#B0BEC5"/>
<path d="M14.181 31.3543C14.2091 31.5067 14.0528 31.6652 13.8277 31.7025C13.6026 31.7398 13.4056 31.6497 13.3774 31.5005C13.3493 31.3512 13.5119 31.1896 13.7307 31.1492C13.9496 31.1087 14.1528 31.202 14.181 31.3543Z" fill="#B0BEC5"/>
</g>
<defs>
<clipPath id="clip0_72_203">
<rect width="38" height="38" fill="white"/>
</clipPath>
</defs>
</svg>
