<svg width="185" height="70" viewBox="0 0 185 70" fill="none" xmlns="http://www.w3.org/2000/svg">
<g clip-path="url(#clip0_71_186)">
<path d="M20.9338 41.0075V0H62.772L20.9338 41.0075Z" fill="#29B6F6"/>
<path d="M125.307 61.5257H62.5649L93.9214 0L125.307 61.5257Z" fill="#6ADBD8"/>
<path d="M41.8382 61.4967C47.3801 56.0555 50.4926 48.6813 50.4926 40.9929C50.4926 33.3046 47.3801 25.9304 41.8382 20.4892L0 61.4967C5.55139 66.9285 13.075 69.9793 20.9191 69.9793C28.7632 69.9793 36.2868 66.9285 41.8382 61.4967Z" fill="#00E676"/>
<path d="M104.403 20.5182H83.4692L93.9214 0L104.403 20.5182Z" fill="#0B6D7E"/>
<path d="M185 41.0075H143.162V61.5257H185V41.0075Z" fill="#FFEA00"/>
<path d="M143.162 41.0075V0H185L143.162 41.0075Z" fill="#E91E63"/>
<path d="M168.478 41.0075C174.251 41.0075 178.93 36.4208 178.93 30.7629C178.93 25.1049 174.251 20.5182 168.478 20.5182C162.705 20.5182 158.026 25.1049 158.026 30.7629C158.026 36.4208 162.705 41.0075 168.478 41.0075Z" fill="#B0BEC5"/>
</g>
<defs>
<clipPath id="clip0_71_186">
<rect width="185" height="70" fill="white"/>
</clipPath>
</defs>
</svg>
